<?xml version="1.0" encoding="iso-8859-1"?>
<!-- Generator: Adobe Illustrator 19.0.0, SVG Export Plug-In . SVG Version: 6.00 Build 0)  -->
<svg version="1.1" id="Capa_1" xmlns="http://www.w3.org/2000/svg" xmlns:xlink="http://www.w3.org/1999/xlink" x="0px" y="0px"
	 viewBox="0 0 512 512" style="enable-background:new 0 0 512 512;" xml:space="preserve">
<g>
	<g>
		<rect x="240.978" y="360.781" width="30.043" height="61.088"/>
	</g>
</g>
<g>
	<g>
		<path d="M123.856,196.379c-6.352,30.5-2.535,60.667,10.291,87.379c7.201-7.147,16.85-11.673,27.515-12.682
			c-6.812-14.125-10.814-29.527-10.814-45.491c0-57.975,47.177-105.152,105.152-105.152s105.152,47.177,105.152,105.152
			c0,15.964-4.001,31.365-10.814,45.491c10.635,1.004,20.253,5.512,27.447,12.627c8.636-18.031,13.41-37.66,13.41-58.117
			C391.195,65.944,156.492,39.388,123.856,196.379z"/>
	</g>
</g>
<g>
	<g>
		<path d="M346.13,300.695H165.87c-8.288,0-15.022,6.734-15.022,15.022v15.022c6.081,0,206.825,0,210.304,0v-15.022
			C361.152,307.428,354.418,300.695,346.13,300.695z"/>
	</g>
</g>
<g>
	<g>
		<path d="M271.022,0.115v61.18c86.54,7.899,150.217,79.788,150.217,164.29c0,34.187-10.578,66.609-30.043,94.417v25.756
			c0,8.303-6.719,15.022-15.022,15.022h-75.109v62.735c29.357,6.008,52.581,29.072,58.567,58.44h76.629
			c24.85,0,45.065-20.215,45.065-45.065V225.586C481.326,110.457,393.014,8.131,271.022,0.115z"/>
	</g>
</g>
<g>
	<g>
		<path d="M240.978,61.117V0C112.526,8.248,30.674,113.92,30.674,225.586v211.305c0,24.85,20.215,45.065,45.065,45.065h76.629
			c5.986-29.368,29.209-52.433,58.567-58.44v-62.735h-75.109c-8.303,0-15.022-6.719-15.022-15.022v-25.487
			C94.282,282.504,84.8,236.608,94.428,190.261C108.166,124.22,165.01,67.748,240.978,61.117z"/>
	</g>
</g>
<g>
	<g>
		<path d="M256,150.477c-41.413,0-75.109,33.696-75.109,75.109c0,16.403,5.604,32.08,15.403,45.065h119.411
			c9.799-12.985,15.403-28.662,15.403-45.065C331.109,184.174,297.413,150.477,256,150.477z"/>
	</g>
</g>
<g>
	<g>
		<path d="M286.043,451.913h-60.087c-24.889,0-45.065,20.176-45.065,45.065c0,8.296,6.726,15.022,15.022,15.022h120.174
			c8.296,0,15.022-6.726,15.022-15.022C331.109,472.089,310.932,451.913,286.043,451.913z"/>
	</g>
</g>
<g>
</g>
<g>
</g>
<g>
</g>
<g>
</g>
<g>
</g>
<g>
</g>
<g>
</g>
<g>
</g>
<g>
</g>
<g>
</g>
<g>
</g>
<g>
</g>
<g>
</g>
<g>
</g>
<g>
</g>
</svg>
